<?xml version="1.0" encoding="UTF-8"?><svg id="a" xmlns="http://www.w3.org/2000/svg" viewBox="0 0 518.2486 73.9335"><g><path d="M122.6578,34.7722c-.7043-2.3495-1.1748-3.4456-2.1922-4.6204-1.5666-1.8011-3.7595-2.7413-6.5788-2.7413-6.3435,0-10.1031,5.0122-10.1031,13.6273,0,8.4578,3.994,13.9397,10.2596,13.9397,3.0545,0,5.8738-1.2527,7.4396-3.4456,.705-1.0182,1.0968-1.8011,1.41-3.6022l14.4102,2.2708c-.8616,3.3677-1.8011,5.4819-3.2898,7.7535-3.9154,5.7951-11.0418,9.0062-20.1267,9.0062-7.5183,0-13.9405-2.3495-18.2477-6.7354-4.5424-4.4638-7.0485-11.3557-7.0485-19.0306,0-15.6629,9.8678-25.6873,25.1396-25.6873,12.0607,0,20.4406,5.9517,23.0246,16.3679l-14.0971,2.8972Z" fill="#194175"/><path d="M141.3782,41.1944c0-15.6629,10.0244-25.6094,25.8446-25.6094s25.8439,9.9465,25.8439,25.4528c0,15.585-10.3376,25.9226-25.9226,25.9226-15.7416,0-25.766-10.0244-25.766-25.766Zm14.9587-.0787c0,8.693,4.0719,13.9405,10.886,13.9405s10.7286-5.0909,10.7286-13.7839c0-8.771-3.994-13.9397-10.6507-13.9397-6.892,0-10.9639,5.1688-10.9639,13.7832Z" fill="#194175"/><path d="M235.9865,62.6524c0-.4698,0-1.0174,.0787-1.7224-5.2474,4.2285-9.2415,5.6385-15.8202,5.6385-14.2529,0-22.868-9.5546-22.868-25.3741,0-8.1446,2.3495-14.6448,6.7354-19.1093,3.994-3.994,9.476-6.1083,15.8982-6.1083,6.3435,0,10.886,1.6445,16.0548,5.7951-.0787-1.1748-.0787-1.8798-.0787-2.9759v-6.5001c0-5.4819-.1566-8.8496-.6263-12.296h16.0548c-.4698,3.2898-.6263,7.0485-.6263,12.296V52.8633c0,5.2474,.1566,8.4578,.6263,12.2952h-15.4284v-2.5061Zm-23.4165-21.3801c0,4.4645,1.2534,8.0667,3.6029,10.3383,1.8798,1.879,4.699,2.9759,7.5962,2.9759,6.9706,0,12.0607-5.7959,12.0607-13.5487,0-7.597-5.0122-13.0789-12.1387-13.0789-6.8133,0-11.1212,5.0909-11.1212,13.3134Z" fill="#194175"/><path d="M272.0151,45.6582c.7829,6.3435,4.4638,9.7112,10.6507,9.7112,3.1332,0,5.8738-1.0182,7.9101-2.8979,1.1748-1.0961,1.7232-1.9577,2.3495-3.994l13.6266,3.8374c-1.8011,4.0727-2.9759,5.8738-5.1688,8.0667-4.4638,4.3859-10.7286,6.6567-18.4822,6.6567-7.6749,0-13.7052-2.1929-18.169-6.6567-4.6211-4.699-7.1272-11.3557-7.1272-19.1093,0-15.5063,9.9465-25.7652,24.9044-25.7652,12.2173,0,20.7538,6.6567,23.4951,18.3256,.6263,2.5061,.9395,5.7951,1.1748,10.2596,0,.3132,0,.7829,.0779,1.5658h-35.2419Zm20.3619-10.8073c-1.0961-5.0122-4.4638-7.6749-9.8678-7.6749-5.5599,0-8.9276,2.5061-10.2589,7.6749h20.1267Z" fill="#194175"/><path d="M348.7669,31.4832c-3.6022-1.0961-5.5599-1.4879-7.988-1.4879-3.994,0-7.0485,1.4093-9.3194,4.2293-1.4879,1.879-2.0363,3.5243-2.3495,6.9699v12.2173c0,5.0122,.1566,7.988,.6263,11.7468h-16.2113c.4698-3.9154,.6263-6.7346,.6263-11.8255V29.2123c0-5.7172-.1566-8.4585-.6263-11.8262h15.585v6.187c3.8374-5.0122,8.5365-7.1265,15.6629-7.1265,2.5061,0,4.0727,.1566,7.7535,.9395l-3.7595,14.0971Z" fill="#194175"/><path d="M370.9329,49.1824c.7829,4.0727,3.4456,5.8738,8.693,5.8738,4.699,0,7.3617-1.3313,7.3617-3.7595,0-1.1748-.6263-2.1922-1.7232-2.8193-1.0961-.6263-2.1143-.9395-6.4215-1.8011-5.9524-1.1748-9.0062-1.9577-11.591-2.8193-3.7588-1.41-6.3435-3.2111-7.8315-5.5606-1.2527-2.1143-1.9577-4.7769-1.9577-7.4396,0-9.3981,7.9094-15.1152,20.9883-15.1152,7.4404,0,13.0002,1.6445,16.6811,5.0122,2.5848,2.2716,3.8374,4.5424,5.0909,8.9283l-15.1152,1.6445c-.3911-3.2111-2.3495-4.6204-6.578-4.6204-4.0727,0-6.5788,1.3313-6.5788,3.3669,0,2.115,1.6445,2.8979,9.3981,4.6211,7.6749,1.6445,10.1023,2.3495,12.8437,3.7588,5.0901,2.5061,7.5183,6.3435,7.5183,11.9828,0,4.1506-1.41,7.9094-3.994,10.4155-3.7595,3.7595-10.181,5.7172-18.5609,5.7172-9.8678,0-16.8377-2.6627-20.5972-7.8315-1.5658-2.1929-2.3495-4.0727-3.1324-7.8315l15.5063-1.7232Z" fill="#1d1d1b"/><path d="M424.8166,17.3861c-.4698,3.2111-.6263,6.3435-.6263,11.8262v24.1207c0,4.2293,.2352,8.4585,.6263,11.8255h-16.3679c.4698-3.8374,.6263-6.8133,.6263-11.8255V29.2123c0-5.0909-.1566-8.302-.6263-11.8262h16.3679Zm-.2345-17.3861V11.7476h-15.8982V0h15.8982Z" fill="#f29100"/><path d="M439.3055,15.7416c0-3.9154-.1566-7.0485-.6263-10.7294h15.9761c-.3911,3.2111-.6263,6.9706-.6263,10.7294v1.6445h2.8193c3.4456,0,5.2474-.0779,7.6749-.3911v13.0002c-2.3495-.3132-4.3859-.4698-7.2051-.4698h-3.289v20.0488c0,2.1929,.3918,3.289,1.41,3.994,.8608,.5484,2.1143,.8616,3.6022,.8616,2.0363,0,3.5243-.3918,5.4819-1.41l1.1748,11.9041c-3.5243,1.0961-6.578,1.5658-10.8073,1.5658-5.3254,0-9.0062-.8608-11.5123-2.7406-2.9759-2.2716-4.0727-4.9343-4.0727-10.2596V29.5255h-2.9759c-2.5061,0-4.5424,.1566-6.8133,.4698v-13.0789c2.2708,.3132,4.2285,.4698,6.9699,.4698h2.8193v-1.6445Z" fill="#1d1d1b"/><path d="M483.0067,45.6582c.7829,6.3435,4.4638,9.7112,10.6507,9.7112,3.1332,0,5.8738-1.0182,7.9101-2.8979,1.1748-1.0961,1.7232-1.9577,2.3495-3.994l13.6266,3.8374c-1.8011,4.0727-2.9759,5.8738-5.1688,8.0667-4.4638,4.3859-10.7286,6.6567-18.4822,6.6567-7.6749,0-13.7052-2.1929-18.169-6.6567-4.6211-4.699-7.1272-11.3557-7.1272-19.1093,0-15.5063,9.9465-25.7652,24.9044-25.7652,12.2173,0,20.7538,6.6567,23.4951,18.3256,.6263,2.5061,.9395,5.7951,1.1748,10.2596,0,.3132,0,.7829,.0779,1.5658h-35.2419Zm20.3619-10.8073c-1.0961-5.0122-4.4638-7.6749-9.8678-7.6749-5.5599,0-8.9276,2.5061-10.2589,7.6749h20.1267Z" fill="#1d1d1b"/></g><path d="M100.9297,67.4179l15.3047-54.5913h5.1855l-15.2686,54.5913h-5.2217Z" fill="#fff"/><path d="M209.6836,67.8788l15.3047-54.5923h5.1855l-15.2686,54.5923h-5.2217Z" fill="#fff"/><path d="M313.9995,70.7421l15.3047-54.5923h5.1855l-15.2686,54.5923h-5.2217Z" fill="#fff"/><path d="M439.5874,64.6054l15.3047-54.5913h5.1855l-15.2686,54.5913h-5.2217Z" fill="#fff"/><g><path d="M46.8065,73.3174H23.0489c-2.7683-.5035-10.9842-22.1211-12.1768-34.6434C9.7795,27.2032,21.4325,4.7384,21.4325,4.7384h29.1249c3.3527,0,6.0346,7.7291,6.2652,16.0309,.5537,19.932,6.0903,11.0529,6.0903,18.5478,0,5.8135-6.0655,3.8639-5.5367,21.3162,.2768,9.1355-5.4512,12.6842-10.5697,12.6842Z" fill="#f29100"/><path d="M66.8271,35.7279v5.8818c-1.8525,.0488-3.3623,.5537-4.5283,1.5156-1.167,.9619-1.9434,2.2676-2.3271,3.915-.3857,1.6475-.5898,4.4805-.6143,8.4971-.0234,4.0171-.0957,6.6636-.2158,7.939-.2168,2.043-.6201,3.6738-1.209,4.8887-.5898,1.2148-1.3174,2.1895-2.1826,2.9219-.8662,.7344-1.9727,1.293-3.3203,1.6777-.9141,.2656-2.4053,.3984-4.4736,.3984h-2.0205v-5.666h1.1182c2.502,0,4.1611-.4512,4.9795-1.3535,.8174-.9004,1.2266-2.9277,1.2266-6.0781,0-6.0142,.1084-9.8276,.3252-11.439,.3838-2.6699,1.1543-4.8047,2.3086-6.4053,1.1553-1.5986,2.791-2.8438,4.9072-3.7344-2.7666-1.3223-4.7148-3.0723-5.8447-5.25-1.1309-2.1768-1.6963-5.8506-1.6963-11.0234,0-4.6904-.0605-7.4922-.1807-8.4072-.168-1.6113-.6436-2.7354-1.4248-3.373-.7822-.6377-2.3154-.9561-4.6006-.9561h-1.1182V4.0121h2.0205c2.3564,0,4.0645,.1924,5.123,.5771,1.5391,.5293,2.8145,1.4199,3.8252,2.6699,1.0107,1.251,1.665,2.8271,1.9668,4.7266,.2998,1.9004,.4629,5.0156,.4863,9.3457,.0244,4.3301,.2285,7.3193,.6143,8.9668,.3838,1.6475,1.1602,2.9531,2.3271,3.915,1.166,.9619,2.6758,1.4668,4.5283,1.5146Z" fill="#194175"/><path d="M0,72.5741L19.0322,4.685h6.4482L6.4932,72.5741H0Z" fill="#194175"/><path d="M31.5898,43.0111v-7.3965h7.3975v7.3965h-7.3975Zm0,30.9224v-7.3965h7.3975v7.3965h-7.3975Z" fill="#194175"/></g></svg>