<?xml version="1.0" encoding="UTF-8"?><svg id="a" xmlns="http://www.w3.org/2000/svg" viewBox="0 0 105.5433 22.0933"><defs><style>.b{fill:#fff;font-size:15.0193px;}.b,.c,.d{font-family:ArialMT, Arial;}.e{fill:#f39200;}.f,.c,.d{fill:#194175;}.g{fill:#1d1d1b;}.c{font-size:18.6777px;}.d{font-size:15.0494px;}</style></defs><g><path class="f" d="M24.9799,8.5574c-.1434-.4785-.2392-.7017-.4464-.941-.319-.3668-.7656-.5583-1.3398-.5583-1.2919,0-2.0575,1.0208-2.0575,2.7753,0,1.7225,.8134,2.8389,2.0894,2.8389,.6221,0,1.1962-.2551,1.5151-.7017,.1436-.2074,.2234-.3668,.2872-.7336l2.9347,.4625c-.1755,.6858-.3668,1.1164-.67,1.579-.7974,1.1802-2.2487,1.8341-4.0989,1.8341-1.5311,0-2.839-.4785-3.7162-1.3717-.9251-.9091-1.4355-2.3126-1.4355-3.8756,0-3.1898,2.0096-5.2313,5.1198-5.2313,2.4562,0,4.1628,1.2121,4.689,3.3334l-2.8709,.59Z"/><path class="f" d="M28.7924,9.8653c0-3.1898,2.0415-5.2154,5.2634-5.2154s5.2632,2.0256,5.2632,5.1836c0,3.1739-2.1053,5.2792-5.2792,5.2792-3.2058,0-5.2473-2.0415-5.2473-5.2473Zm3.0464-.016c0,1.7704,.8293,2.839,2.217,2.839s2.1849-1.0368,2.1849-2.8071c0-1.7862-.8134-2.8389-2.1691-2.8389-1.4036,0-2.2328,1.0526-2.2328,2.807Z"/><path class="f" d="M48.0597,14.2353c0-.0957,0-.2072,.016-.3508-1.0687,.8612-1.8821,1.1483-3.2218,1.1483-2.9027,0-4.6572-1.9458-4.6572-5.1675,0-1.6587,.4785-2.9825,1.3717-3.8917,.8134-.8134,1.9298-1.244,3.2377-1.244,1.2919,0,2.217,.3349,3.2696,1.1802-.016-.2392-.016-.3828-.016-.606v-1.3238c0-1.1164-.0319-1.8023-.1276-2.5041h3.2696c-.0957,.67-.1276,1.4355-.1276,2.5041V12.2417c0,1.0687,.0319,1.7225,.1276,2.504h-3.1421v-.5104Zm-4.7688-4.3541c0,.9092,.2553,1.6428,.7337,2.1054,.3828,.3827,.957,.606,1.547,.606,1.4196,0,2.4562-1.1803,2.4562-2.7592,0-1.5471-1.0208-2.6636-2.4721-2.6636-1.3876,0-2.2649,1.0368-2.2649,2.7113Z"/><path class="f" d="M55.397,10.7743c.1594,1.2919,.9091,1.9777,2.1691,1.9777,.6381,0,1.1962-.2074,1.6109-.5902,.2392-.2232,.3509-.3987,.4785-.8134l2.7751,.7815c-.3668,.8294-.606,1.1962-1.0526,1.6428-.9091,.8932-2.1849,1.3557-3.764,1.3557-1.563,0-2.7911-.4466-3.7002-1.3557-.9411-.957-1.4515-2.3126-1.4515-3.8917,0-3.1579,2.0256-5.2472,5.0719-5.2472,2.4881,0,4.2266,1.3557,4.7849,3.7321,.1276,.5104,.1913,1.1802,.2392,2.0894,0,.0638,0,.1594,.0159,.3189h-7.1771Zm4.1468-2.2009c-.2232-1.0208-.9091-1.563-2.0096-1.563-1.1323,0-1.8181,.5104-2.0893,1.563h4.0989Z"/><path class="f" d="M71.0278,7.8875c-.7336-.2232-1.1323-.303-1.6268-.303-.8134,0-1.4355,.287-1.8979,.8613-.303,.3827-.4147,.7177-.4785,1.4194v2.4881c0,1.0208,.0319,1.6268,.1276,2.3923h-3.3015c.0957-.7974,.1276-1.3715,.1276-2.4083V7.4251c0-1.1643-.0319-1.7226-.1276-2.4085h3.1739v1.26c.7815-1.0208,1.7385-1.4513,3.1898-1.4513,.5104,0,.8294,.0319,1.579,.1913l-.7656,2.8709Z"/><path class="g" d="M75.542,11.4921c.1594,.8294,.7017,1.1962,1.7704,1.1962,.957,0,1.4992-.2711,1.4992-.7656,0-.2392-.1276-.4464-.3509-.5742-.2232-.1276-.4306-.1913-1.3078-.3668-1.2122-.2392-1.8341-.3987-2.3605-.5742-.7655-.2872-1.2919-.654-1.5949-1.1324-.2551-.4306-.3987-.9728-.3987-1.5151,0-1.9139,1.6108-3.0783,4.2743-3.0783,1.5153,0,2.6475,.3349,3.3972,1.0208,.5264,.4626,.7815,.9251,1.0368,1.8183l-3.0783,.3349c-.0796-.654-.4785-.941-1.3396-.941-.8294,0-1.3398,.2711-1.3398,.6857,0,.4307,.3349,.5902,1.9139,.9411,1.563,.3349,2.0574,.4785,2.6157,.7655,1.0366,.5104,1.5311,1.2919,1.5311,2.4403,0,.8453-.2872,1.6108-.8134,2.1211-.7656,.7656-2.0734,1.1643-3.78,1.1643-2.0096,0-3.4291-.5423-4.1947-1.5949-.3189-.4466-.4785-.8294-.6379-1.5949l3.1579-.3509Z"/><path class="e" d="M86.5156,5.0166c-.0957,.654-.1276,1.2919-.1276,2.4085v4.9123c0,.8613,.0479,1.7226,.1276,2.4083h-3.3334c.0957-.7815,.1276-1.3876,.1276-2.4083V7.4251c0-1.0368-.0319-1.6907-.1276-2.4085h3.3334Zm-.0478-3.5407V3.8683h-3.2377V1.4759h3.2377Z"/><path class="g" d="M89.4663,4.6817c0-.7974-.0319-1.4355-.1276-2.1851h3.2536c-.0796,.654-.1276,1.4196-.1276,2.1851v.3349h.5742c.7017,0,1.0687-.0159,1.563-.0796v2.6475c-.4785-.0638-.8932-.0957-1.4673-.0957h-.6698v4.083c0,.4466,.0798,.6698,.2872,.8134,.1753,.1117,.4306,.1755,.7336,.1755,.4147,0,.7177-.0798,1.1164-.2872l.2392,2.4243c-.7177,.2232-1.3396,.3189-2.2009,.3189-1.0845,0-1.8341-.1753-2.3445-.5581-.606-.4626-.8294-1.0049-.8294-2.0894V7.4889h-.606c-.5104,0-.9251,.0319-1.3876,.0957v-2.6636c.4625,.0638,.8612,.0957,1.4194,.0957h.5742v-.3349Z"/><path class="g" d="M98.3662,10.7743c.1594,1.2919,.9091,1.9777,2.1691,1.9777,.6381,0,1.1962-.2074,1.6109-.5902,.2392-.2232,.3509-.3987,.4785-.8134l2.7751,.7815c-.3668,.8294-.606,1.1962-1.0526,1.6428-.9091,.8932-2.1849,1.3557-3.764,1.3557-1.563,0-2.7911-.4466-3.7002-1.3557-.9411-.957-1.4515-2.3126-1.4515-3.8917,0-3.1579,2.0256-5.2472,5.0719-5.2472,2.4881,0,4.2266,1.3557,4.7849,3.7321,.1276,.5104,.1913,1.1802,.2392,2.0894,0,.0638,0,.1594,.0159,.3189h-7.1771Zm4.1468-2.2009c-.2232-1.0208-.9091-1.563-2.0096-1.563-1.1323,0-1.8181,.5104-2.0893,1.563h4.0989Z"/></g><text class="b" transform="translate(20.5547 15.0244)"><tspan x="0" y="0">/</tspan></text><text class="b" transform="translate(42.7031 15.1162)"><tspan x="0" y="0">/</tspan></text><text class="b" transform="translate(63.9473 15.7002)"><tspan x="0" y="0">/</tspan></text><text class="b" transform="translate(89.5234 14.4502)"><tspan x="0" y="0">/</tspan></text><g><path class="e" d="M9.5325,16.4072H4.6942c-.5638-.1025-2.237-4.505-2.4799-7.0553-.2225-2.3361,2.1507-6.9111,2.1507-6.9111h5.9314c.6828,0,1.229,1.5741,1.2759,3.2647,.1128,4.0592,1.2403,2.251,1.2403,3.7773,0,1.1839-1.2353,.7869-1.1276,4.3411,.0564,1.8605-1.1102,2.5832-2.1526,2.5832Z"/><text class="d" transform="translate(9.0098 13.251)"><tspan x="0" y="0">}</tspan></text><text class="c" transform="translate(0 16.0283)"><tspan x="0" y="0">/</tspan></text><text class="d" transform="translate(5.0742 16.5342)"><tspan x="0" y="0">:</tspan></text></g></svg>